<svg width="1280" height="640" viewBox="0 0 1280 640" fill="none" xmlns="http://www.w3.org/2000/svg">
<path d="M623.204 317.373C633.764 317.373 643.865 312.323 649.466 304.059C650.476 302.498 650.935 300.937 650.935 299.1V289.275C650.935 287.071 649.282 285.51 647.17 285.51H626.51C624.398 285.51 622.745 286.887 622.745 288.724C622.745 290.469 624.398 291.938 626.51 291.938H643.773V300.661C639.457 307.089 632.019 310.945 623.571 310.945C609.522 310.945 599.146 300.294 599.146 285.969C599.146 271.828 609.339 261.36 623.204 261.36C630.55 261.36 635.968 264.023 641.477 270.084C642.671 271.461 643.589 271.828 644.783 271.828C646.711 271.828 648.18 270.267 648.18 268.614C648.18 267.696 647.813 266.962 647.078 265.951C642.028 259.156 632.662 254.749 623.204 254.749C605.482 254.749 591.708 268.431 591.708 286.061C591.708 303.691 605.482 317.373 623.204 317.373ZM691.622 254.749C673.992 254.749 660.218 268.523 660.218 286.061C660.218 303.599 673.992 317.373 691.622 317.373C709.252 317.373 723.118 303.508 723.118 286.061C723.118 268.614 709.252 254.749 691.622 254.749ZM691.714 261.36C705.395 261.36 715.68 271.92 715.68 285.969C715.68 300.11 705.395 310.762 691.714 310.762C677.94 310.762 667.656 300.202 667.656 285.969C667.656 271.828 677.94 261.36 691.714 261.36ZM789.187 317.373C798.645 317.373 807.46 313.333 812.786 306.538C813.796 305.252 814.164 304.426 814.164 303.508C814.164 301.763 812.602 300.294 810.766 300.294C809.572 300.294 808.562 300.753 807.736 301.763C802.961 307.64 796.717 310.762 789.279 310.762C775.505 310.762 765.129 300.11 765.129 286.061C765.129 272.012 775.505 261.36 789.279 261.36C796.717 261.36 802.961 264.39 807.736 270.359C808.562 271.369 809.572 271.828 810.766 271.828C812.602 271.828 814.164 270.359 814.164 268.614C814.164 267.696 813.796 266.87 812.786 265.584C807.277 258.789 798.553 254.749 789.187 254.749C771.465 254.749 757.692 268.523 757.692 286.061C757.692 303.599 771.465 317.373 789.187 317.373ZM830.31 317.373C832.33 317.373 833.8 315.72 833.8 313.7V250.158C833.8 248.138 832.33 246.485 830.31 246.485C828.198 246.485 826.729 248.138 826.729 250.158V313.7C826.729 315.72 828.198 317.373 830.31 317.373ZM868.977 270.635C856.213 270.635 846.113 280.919 846.113 294.05C846.113 307.364 856.213 317.373 869.803 317.373C875.588 317.373 880.914 315.537 885.322 311.864C886.607 310.67 887.066 309.844 887.066 308.65C887.066 306.813 885.689 305.528 883.944 305.528C883.118 305.528 882.291 305.895 881.557 306.538C878.343 309.293 874.303 310.854 869.895 310.854C860.896 310.854 854.377 304.977 853.459 296.162H885.046C887.801 296.162 889.362 294.692 889.362 291.754V291.295C889.362 279.266 880.822 270.635 868.977 270.635ZM868.793 277.062C876.598 277.062 881.924 282.388 882.108 289.918H853.734C855.295 282.296 861.172 277.062 868.793 277.062ZM917.854 270.635C911.334 270.635 905.366 273.114 901.509 277.613C900.591 278.623 900.224 279.633 900.224 280.643C900.224 282.113 901.693 283.582 903.438 283.582C904.356 283.582 905.274 283.123 906.192 282.204C909.314 278.899 913.079 277.154 917.395 277.154C924.282 277.154 928.23 281.194 928.23 288.448V292.305H914.089C904.356 292.305 898.02 297.264 898.02 304.793C898.02 312.323 904.264 317.373 913.63 317.373C919.874 317.373 924.924 315.077 928.23 311.129V313.7C928.23 315.72 929.791 317.373 931.811 317.373C933.74 317.373 935.301 315.812 935.301 313.7V288.816C935.301 277.43 928.689 270.635 917.854 270.635ZM914.548 311.496C908.947 311.496 905.274 308.742 905.274 304.518C905.274 300.294 908.58 298.09 914.916 298.09H928.23V299.192C928.23 305.987 922.078 311.496 914.548 311.496ZM970.682 270.635C965.265 270.635 960.582 272.655 957.368 275.96V274.307C957.368 272.287 955.807 270.635 953.878 270.635C951.767 270.635 950.297 272.287 950.297 274.307V313.7C950.297 315.72 951.767 317.373 953.878 317.373C955.807 317.373 957.368 315.812 957.368 313.7V289.091C957.368 282.113 962.235 277.154 969.121 277.154C975.733 277.154 980.232 281.837 980.232 289.091V313.7C980.232 315.72 981.701 317.373 983.813 317.373C985.742 317.373 987.303 315.812 987.303 313.7V288.265C987.303 277.521 980.875 270.635 970.682 270.635ZM616.221 406.952C615.245 406.952 614.18 407.129 612.672 407.129C606.462 407.129 603.535 404.556 603.535 398.879V375.282H614.269C615.955 375.282 617.374 373.951 617.374 372.177C617.374 370.491 615.955 369.16 614.269 369.16H603.535V360.023C603.535 357.983 602.116 356.475 600.164 356.475C598.212 356.475 596.704 358.072 596.704 360.023V369.16H592.269C590.494 369.16 589.075 370.491 589.075 372.177C589.075 373.951 590.494 375.282 592.269 375.282H596.704V399.322C596.704 408.371 601.849 413.339 611.253 413.339C613.648 413.339 615.422 413.161 616.842 412.718C618.439 412.274 619.326 411.21 619.326 409.613C619.326 408.016 618.084 406.952 616.221 406.952ZM646.746 368.185C634.415 368.185 624.657 378.12 624.657 390.806C624.657 403.669 634.415 413.339 647.544 413.339C653.133 413.339 658.278 411.565 662.537 408.016C663.779 406.863 664.222 406.065 664.222 404.911C664.222 403.137 662.891 401.895 661.206 401.895C660.407 401.895 659.609 402.25 658.899 402.871C655.794 405.532 651.891 407.04 647.633 407.04C638.939 407.04 632.641 401.363 631.754 392.846H662.27C664.932 392.846 666.44 391.427 666.44 388.588V388.145C666.44 376.524 658.19 368.185 646.746 368.185ZM646.568 374.394C654.109 374.394 659.254 379.54 659.432 386.814H632.02C633.528 379.451 639.205 374.394 646.568 374.394ZM725.814 368.185C719.604 368.185 714.192 371.023 710.999 375.636C708.515 370.846 703.813 368.185 697.692 368.185C692.547 368.185 688.289 370.048 685.272 373.152V371.733C685.272 369.781 683.764 368.185 681.901 368.185C679.861 368.185 678.442 369.781 678.442 371.733V409.79C678.442 411.742 679.861 413.339 681.901 413.339C683.764 413.339 685.272 411.831 685.272 409.79V386.104C685.272 379.274 689.708 374.483 696.273 374.483C702.482 374.483 706.563 379.096 706.563 386.104V409.79C706.563 411.742 707.983 413.339 710.023 413.339C711.886 413.339 713.394 411.831 713.394 409.79V385.483C713.394 379.274 718.096 374.483 724.483 374.483C730.693 374.483 734.685 379.007 734.685 386.104V409.79C734.685 411.742 736.104 413.339 738.145 413.339C740.007 413.339 741.516 411.831 741.516 409.79V385.217C741.516 374.749 735.483 368.185 725.814 368.185ZM778.688 368.185C771.946 368.185 766.179 371.023 762.808 375.459V371.556C762.808 369.604 761.3 368.096 759.437 368.096C757.397 368.096 755.978 369.604 755.978 371.556V425.847C755.978 427.799 757.397 429.396 759.437 429.396C761.3 429.396 762.808 427.888 762.808 425.847V406.065C766.179 410.5 772.034 413.339 778.688 413.339C790.93 413.339 800.067 403.669 800.067 390.717C800.067 377.854 790.93 368.185 778.688 368.185ZM777.712 407.04C768.663 407.04 762.72 400.476 762.72 390.717C762.72 381.048 768.752 374.483 777.712 374.483C786.583 374.483 793.059 381.403 793.059 390.806C793.059 400.121 786.583 407.04 777.712 407.04ZM815.489 413.339C817.44 413.339 818.86 411.742 818.86 409.79V348.402C818.86 346.45 817.44 344.853 815.489 344.853C813.448 344.853 812.029 346.45 812.029 348.402V409.79C812.029 411.742 813.448 413.339 815.489 413.339ZM849.385 368.185C843.086 368.185 837.32 370.58 833.594 374.927C832.707 375.903 832.352 376.878 832.352 377.854C832.352 379.274 833.771 380.693 835.457 380.693C836.344 380.693 837.231 380.249 838.118 379.362C841.135 376.169 844.772 374.483 848.941 374.483C855.595 374.483 859.409 378.386 859.409 385.395V389.121H845.748C836.344 389.121 830.223 393.911 830.223 401.185C830.223 408.46 836.255 413.339 845.304 413.339C851.336 413.339 856.216 411.121 859.409 407.306V409.79C859.409 411.742 860.917 413.339 862.869 413.339C864.732 413.339 866.24 411.831 866.24 409.79V385.75C866.24 374.749 859.853 368.185 849.385 368.185ZM846.191 407.661C840.78 407.661 837.231 405 837.231 400.919C837.231 396.839 840.425 394.709 846.546 394.709H859.409V395.774C859.409 402.339 853.465 407.661 846.191 407.661ZM902.108 406.952C901.132 406.952 900.067 407.129 898.559 407.129C892.35 407.129 889.422 404.556 889.422 398.879V375.282H900.156C901.842 375.282 903.261 373.951 903.261 372.177C903.261 370.491 901.842 369.16 900.156 369.16H889.422V360.023C889.422 357.983 888.003 356.475 886.051 356.475C884.099 356.475 882.591 358.072 882.591 360.023V369.16H878.156C876.381 369.16 874.962 370.491 874.962 372.177C874.962 373.951 876.381 375.282 878.156 375.282H882.591V399.322C882.591 408.371 887.737 413.339 897.14 413.339C899.535 413.339 901.309 413.161 902.729 412.718C904.326 412.274 905.213 411.21 905.213 409.613C905.213 408.016 903.971 406.952 902.108 406.952ZM932.633 368.185C920.302 368.185 910.544 378.12 910.544 390.806C910.544 403.669 920.302 413.339 933.431 413.339C939.02 413.339 944.165 411.565 948.424 408.016C949.666 406.863 950.109 406.065 950.109 404.911C950.109 403.137 948.778 401.895 947.093 401.895C946.295 401.895 945.496 402.25 944.786 402.871C941.682 405.532 937.778 407.04 933.52 407.04C924.826 407.04 918.528 401.363 917.641 392.846H948.157C950.819 392.846 952.327 391.427 952.327 388.588V388.145C952.327 376.524 944.077 368.185 932.633 368.185ZM932.456 374.394C939.996 374.394 945.141 379.54 945.319 386.814H917.907C919.415 379.451 925.092 374.394 932.456 374.394Z" fill="#58BFD9"/>
<circle cx="370.34" cy="342.01" r="108.272" fill="#7FD5EA" stroke="black" stroke-width="6.02746"/>
<path d="M361.56 328.659C361.56 357.747 337.038 381.521 306.545 381.521C276.053 381.521 251.531 357.747 251.531 328.659C251.531 299.57 276.053 275.797 306.545 275.797C337.038 275.797 361.56 299.57 361.56 328.659Z" fill="white" stroke="#140D0D" stroke-width="6.02746"/>
<circle cx="315.311" cy="328.01" r="18.8711" fill="#140D0D" stroke="#140D0D" stroke-width="6.02746"/>
<path d="M489.421 328.659C489.421 357.747 464.898 381.521 434.406 381.521C403.914 381.521 379.391 357.747 379.391 328.659C379.391 299.57 403.914 275.797 434.406 275.797C464.898 275.797 489.421 299.57 489.421 328.659Z" fill="white" stroke="#140D0D" stroke-width="6.02746"/>
<circle cx="443.172" cy="328.01" r="18.8711" fill="#140D0D" stroke="#140D0D" stroke-width="6.02746"/>
<path d="M352.699 368.055C352.699 372.451 354.57 376.667 357.901 379.775C361.231 382.884 365.748 384.63 370.458 384.63C375.168 384.63 379.685 382.884 383.015 379.775C386.345 376.667 388.216 372.451 388.216 368.055L370.458 368.055L352.699 368.055Z" fill="black"/>
<path d="M492.399 218.885V239.603" stroke="#58BFD9" stroke-width="6.02746" stroke-linecap="round" stroke-linejoin="round"/>
<path d="M463.986 247.298L484.704 247.298" stroke="#58BFD9" stroke-width="6.02746" stroke-linecap="round" stroke-linejoin="round"/>
<path d="M492.399 256.769V277.487" stroke="#58BFD9" stroke-width="6.02746" stroke-linecap="round" stroke-linejoin="round"/>
<path d="M499.503 247.298L520.221 247.298" stroke="#58BFD9" stroke-width="6.02746" stroke-linecap="round" stroke-linejoin="round"/>
<path d="M241.413 394.101V414.819" stroke="#58BFD9" stroke-width="6.02746" stroke-linecap="round" stroke-linejoin="round"/>
<path d="M213 422.515L233.718 422.515" stroke="#58BFD9" stroke-width="6.02746" stroke-linecap="round" stroke-linejoin="round"/>
<path d="M241.413 431.986V452.704" stroke="#58BFD9" stroke-width="6.02746" stroke-linecap="round" stroke-linejoin="round"/>
<path d="M248.517 422.515L269.235 422.515" stroke="#58BFD9" stroke-width="6.02746" stroke-linecap="round" stroke-linejoin="round"/>
<path d="M267.46 181V201.718" stroke="#58BFD9" stroke-width="6.02746" stroke-linecap="round" stroke-linejoin="round"/>
<path d="M239.047 209.414L259.765 209.414" stroke="#58BFD9" stroke-width="6.02746" stroke-linecap="round" stroke-linejoin="round"/>
<path d="M267.46 218.885V239.603" stroke="#58BFD9" stroke-width="6.02746" stroke-linecap="round" stroke-linejoin="round"/>
<path d="M274.564 209.414L295.282 209.414" stroke="#58BFD9" stroke-width="6.02746" stroke-linecap="round" stroke-linejoin="round"/>
</svg>
